<?xml version="1.0" encoding="utf-8"?>
<!-- Generator: Adobe Illustrator 24.1.1, SVG Export Plug-In . SVG Version: 6.00 Build 0)  -->
<svg version="1.1" id="Layer_1" xmlns="http://www.w3.org/2000/svg" xmlns:xlink="http://www.w3.org/1999/xlink" x="0px" y="0px"
	 viewBox="0 0 512 512" style="enable-background:new 0 0 512 512;" xml:space="preserve">
<g>
	<path d="M349.1,174.5v23.3c32.2,0,61.1,13,82.3,34.1c21.1,21.1,34.1,50.1,34.1,82.3v139.6h-46.5V314.2c0-38.6-31.2-69.8-69.8-69.8
		c-38.6,0-69.8,31.2-69.8,69.8v139.6h-46.5V314.2c0-32.2,13-61.1,34.1-82.3c21.1-21.1,50.1-34.1,82.3-34.1V174.5v-23.3
		c-90,0-162.9,72.9-162.9,162.9v162.9c0,6.1,2.5,12.1,6.8,16.5c4.3,4.3,10.3,6.8,16.5,6.8h93.1c6.1,0,12.1-2.5,16.5-6.8
		c4.3-4.3,6.8-10.3,6.8-16.5V314.2c0-12.8,10.4-23.3,23.3-23.3c12.8,0,23.2,10.4,23.3,23.3v162.9c0,6.1,2.5,12.1,6.8,16.5
		c4.3,4.3,10.3,6.8,16.5,6.8h93.1c6.1,0,12.1-2.5,16.5-6.8c4.3-4.3,6.8-10.3,6.8-16.5V314.2c0-90-72.9-162.9-162.9-162.9V174.5z"/>
	<path d="M23.3,197.8v23.3h69.8v232.7H46.5l0-256H23.3v23.3V197.8H0v279.3c0,6.1,2.5,12.1,6.8,16.5c4.3,4.3,10.3,6.8,16.5,6.8h93.1
		c6.1,0,12.1-2.5,16.5-6.8c4.3-4.3,6.8-10.3,6.8-16.5V197.8c0-6.1-2.5-12.1-6.8-16.5c-4.3-4.3-10.3-6.8-16.5-6.8H23.3
		c-6.1,0-12.1,2.5-16.5,6.8C2.5,185.7,0,191.7,0,197.8H23.3z"/>
	<path d="M69.8,34.9v23.3c12.8,0,23.2,10.4,23.3,23.3c0,12.8-10.4,23.2-23.3,23.3c-12.8,0-23.2-10.4-23.3-23.3
		c0-12.8,10.4-23.3,23.3-23.3V34.9V11.6C31.2,11.7,0,42.9,0,81.5c0,38.6,31.2,69.8,69.8,69.8c38.6,0,69.8-31.2,69.8-69.8
		c0-38.6-31.2-69.8-69.8-69.8V34.9z"/>
</g>
</svg>
